<svg width="383" height="10" viewBox="0 0 383 10" fill="none" xmlns="http://www.w3.org/2000/svg">
<line y1="-0.5" x2="383" y2="-0.5" transform="matrix(-1 0.000461054 -0.000283401 -1 383 5)" stroke="#890C4E" stroke-opacity="0.85"/>
<ellipse cx="4.92789" cy="4.25556" rx="4.92789" ry="4.25556" transform="matrix(0.000315187 1 -1 0.000414558 370.849 0)" fill="#890C4E"/>
<ellipse cx="4.92789" cy="4.25556" rx="4.92789" ry="4.25556" transform="matrix(0.000315187 1 -1 0.000414558 201.69 0.0701294)" fill="#890C4E"/>
<ellipse cx="4.92789" cy="4.25556" rx="4.92789" ry="4.25556" transform="matrix(0.000315187 1 -1 0.000414558 201.69 0.0701294)" fill="#890C4E"/>
<ellipse cx="4.92789" cy="4.25556" rx="4.92789" ry="4.25556" transform="matrix(0.000315187 1 -1 0.000414558 201.69 0.0701294)" fill="#890C4E"/>
<ellipse cx="4.92789" cy="4.25556" rx="4.92789" ry="4.25556" transform="matrix(0.000315187 1 -1 0.000414558 291.057 0.0330811)" fill="#890C4E"/>
<ellipse cx="4.92789" cy="4.25556" rx="4.92789" ry="4.25556" transform="matrix(0.000315187 1 -1 0.000414558 31.4679 0.140686)" fill="#890C4E"/>
<ellipse cx="4.92789" cy="4.25556" rx="4.92789" ry="4.25556" transform="matrix(0.000315187 1 -1 0.000414558 111.259 0.107605)" fill="#890C4E"/>
</svg>
