<svg width="376" height="7" viewBox="0 0 376 7" fill="none" xmlns="http://www.w3.org/2000/svg">
<path d="M0.333333 3.5C0.333333 4.97276 1.52724 6.16667 3 6.16667C4.47276 6.16667 5.66667 4.97276 5.66667 3.5C5.66667 2.02724 4.47276 0.833333 3 0.833333C1.52724 0.833333 0.333333 2.02724 0.333333 3.5ZM369.833 3.5C369.833 4.97276 371.027 6.16667 372.5 6.16667C373.973 6.16667 375.167 4.97276 375.167 3.5C375.167 2.02724 373.973 0.833333 372.5 0.833333C371.027 0.833333 369.833 2.02724 369.833 3.5ZM3 4H372.5V3H3V4Z" fill="#033B3F"/>
</svg>
