<svg width="374" height="248" viewBox="0 0 374 248" fill="none" xmlns="http://www.w3.org/2000/svg">
<path d="M0.833333 3C0.833333 4.47276 2.02724 5.66667 3.5 5.66667C4.97276 5.66667 6.16667 4.47276 6.16667 3C6.16667 1.52724 4.97276 0.333333 3.5 0.333333C2.02724 0.333333 0.833333 1.52724 0.833333 3ZM3.5 244.5H3V245H3.5V244.5ZM367.833 244.5C367.833 245.973 369.027 247.167 370.5 247.167C371.973 247.167 373.167 245.973 373.167 244.5C373.167 243.027 371.973 241.833 370.5 241.833C369.027 241.833 367.833 243.027 367.833 244.5ZM3 3V244.5H4V3H3ZM3.5 245H370.5V244H3.5V245Z" fill="#033B3F"/>
</svg>
